<svg id="Capa_1" enable-background="new 0 0 512 512" height="512" viewBox="0 0 512 512" width="512" xmlns="http://www.w3.org/2000/svg"><g><g><path d="m421 512h-330v-390h120v60h90v-60h120z" fill="#54548c"/></g><path d="m301 182h-45v330h165v-390h-120z" fill="#443d66"/><path d="m226 0c-24.901 0-45 20.099-45 45v152h150v-107l30-60v-30z" fill="#ecf2ff"/><path d="m256 197h75v-107l30-60v-30h-105z" fill="#d9e5ff"/><g id="Receipt_Print_1_"><g><path d="m361 332h-210v-90h210z" fill="#ffbe40"/></g><g><path d="m211 362h30v30h-30z" fill="#ecf2ff"/></g><g><path d="m271 362h30v30h-30z" fill="#d9e5ff"/></g><g><path d="m331 362h30v30h-30z" fill="#d9e5ff"/></g><g><path d="m331 422h30v30h-30z" fill="#d9e5ff"/></g><g><path d="m271 422h30v30h-30z" fill="#d9e5ff"/></g><g><path d="m211 422h30v30h-30z" fill="#ecf2ff"/></g><g><path d="m151 422h30v30h-30z" fill="#ecf2ff"/></g><g><path d="m151 362h30v30h-30z" fill="#ecf2ff"/></g></g><path d="m391 30v60h-60v-60c0-16.5 13.5-30 30-30 16.124 0 30 13.29 30 30z" fill="#bfd6ff"/><g><path d="m151 182h210v30h-210z" fill="#ff5959"/></g><path d="m256 182h105v30h-105z" fill="#e63a57"/><path d="m256 242h105v90h-105z" fill="#ff9f40"/></g></svg>